<svg id="Solid_G" height="512" viewBox="0 0 512 512" width="512" xmlns="http://www.w3.org/2000/svg" xmlns:xlink="http://www.w3.org/1999/xlink" data-name="Solid G"><linearGradient id="linear-gradient" gradientUnits="userSpaceOnUse" x1="148" x2="148" y1="-25.229" y2="569.522"><stop offset="0" stop-color="#ff91d2"/><stop offset=".262" stop-color="#f68bd9"/><stop offset=".688" stop-color="#de79ed"/><stop offset=".999" stop-color="#c86aff"/></linearGradient><linearGradient id="linear-gradient-2" x1="256" x2="256" xlink:href="#linear-gradient" y1="-25.229" y2="569.522"/><linearGradient id="linear-gradient-6" x1="364" x2="364" xlink:href="#linear-gradient" y1="-25.229" y2="569.522"/><linearGradient id="linear-gradient-9" x1="408" x2="408" xlink:href="#linear-gradient" y1="-25.229" y2="569.522"/><linearGradient id="linear-gradient-10" gradientTransform="matrix(.707 .707 -.707 .707 176.807 -138.844)" x1="256" x2="256" xlink:href="#linear-gradient" y1="-25.229" y2="569.522"/><linearGradient id="linear-gradient-11" x1="104" x2="104" xlink:href="#linear-gradient" y1="-25.229" y2="569.522"/><g><path d="m168 272h-28a12.013 12.013 0 0 0 -12 12v12h40z" fill="url(#linear-gradient)"/><g fill="url(#linear-gradient-2)"><path d="m256 350.914 72.269-38.914h-144.538z"/><path d="m96 324v52h320v-52a12.013 12.013 0 0 0 -12-12h-41.982l-102.225 55.044a8 8 0 0 1 -7.586 0l-102.225-55.044h-41.982a12.013 12.013 0 0 0 -12 12z"/><path d="m80 324a28.032 28.032 0 0 1 28-28h4v-12a28.032 28.032 0 0 1 28-28h28v-14.116a24 24 0 1 1 33.884-33.884h108.232a24 24 0 1 1 33.884 33.884v14.116h28a28.032 28.032 0 0 1 28 28v12h4a28.032 28.032 0 0 1 28 28v52h16v-164a12.013 12.013 0 0 0 -12-12h-36a8 8 0 0 1 -8-8v-40a32.036 32.036 0 0 0 -32-32h-42.017a8 8 0 0 1 -7.747-6.006 56.02 56.02 0 0 0 -108.472 0 8 8 0 0 1 -7.747 6.006h-42.017a32.036 32.036 0 0 0 -32 32v40a8 8 0 0 1 -8 8h-36a12.013 12.013 0 0 0 -12 12v164h16zm138.343-185.657 32-32a8 8 0 0 1 11.314 0l32 32a8 8 0 0 1 0 11.314l-32 32a8 8 0 0 1 -11.314 0l-32-32a8 8 0 0 1 0-11.314z"/><path d="m286 256h-60a2 2 0 0 0 -2 2v38h64v-38a2 2 0 0 0 -2-2zm-14 24h-32v-16h32z"/></g><path d="m384 284a12.013 12.013 0 0 0 -12-12h-28v24h40z" fill="url(#linear-gradient-6)"/><path d="m32 392h448v16h-448z" fill="url(#linear-gradient-2)"/><path d="m331.994 230.935a8 8 0 1 0 -10.929-10.929 8 8 0 0 1 -6.924 3.994h-116.282a8 8 0 0 1 -6.924-3.994 8 8 0 1 0 -10.929 10.929 8 8 0 0 1 3.994 6.924v58.141h24v-38a18.021 18.021 0 0 1 18-18h60a18.021 18.021 0 0 1 18 18v38h24v-58.141a8 8 0 0 1 3.994-6.924z" fill="url(#linear-gradient-2)"/><path d="m396.944 440h22.112l8-16h-38.112z" fill="url(#linear-gradient-9)"/><path d="m241.373 129.373h29.255v29.255h-29.255z" fill="url(#linear-gradient-10)" transform="matrix(.707 -.707 .707 .707 -26.842 223.199)"/><path d="m92.944 440h22.112l8-16h-38.112z" fill="url(#linear-gradient-11)"/></g></svg>